<?xml version="1.0" standalone="no"?>
<!DOCTYPE svg PUBLIC "-//W3C//DTD SVG 20010904//EN"
 "http://www.w3.org/TR/2001/REC-SVG-20010904/DTD/svg10.dtd">
<svg version="1.0" xmlns="http://www.w3.org/2000/svg"
 width="180.000000pt" height="180.000000pt" viewBox="0 0 180.000000 180.000000"
 preserveAspectRatio="xMidYMid meet">
<metadata>
Created by potrace 1.14, written by Peter Selinger 2001-2017
</metadata>
<g transform="translate(0.000000,180.000000) scale(0.100000,-0.100000)"
fill="#000000" stroke="none">
<path d="M845 1705 c-19 -18 -25 -35 -25 -67 l0 -43 -44 49 c-51 54 -77 58
-109 14 l-21 -28 32 -45 c26 -37 29 -45 14 -45 -9 0 -32 -9 -50 -20 -29 -18
-50 -20 -215 -20 -198 0 -219 -5 -220 -52 0 -14 17 -49 37 -79 52 -77 49 -89
-19 -89 -42 0 -60 -5 -75 -20 -27 -27 -25 -50 9 -118 l29 -58 1 -334 c2 -293
4 -336 18 -352 21 -23 55 -23 76 0 15 16 17 51 17 280 l0 262 24 0 c13 0 38
-3 55 -6 l31 -6 0 -314 0 -314 -123 0 c-107 0 -126 -2 -140 -18 -21 -23 -22
-56 -2 -75 21 -21 325 -29 968 -25 510 3 529 4 543 22 21 30 17 62 -11 84
l-25 20 0 262 c0 257 -4 292 -34 312 -20 13 -53 8 -69 -10 -15 -16 -17 -52
-17 -295 l0 -277 -55 0 -55 0 0 314 0 314 95 4 c118 4 126 10 135 110 4 45 14
89 28 115 43 82 18 123 -73 123 -68 0 -71 12 -19 89 40 59 46 97 18 118 -28
21 -317 18 -338 -3 -18 -18 -20 -47 -6 -75 9 -17 22 -19 102 -19 89 0 90 0 83
-22 -4 -13 -9 -38 -12 -55 l-5 -33 -113 0 -112 0 -7 53 c-3 28 -6 74 -6 100 0
40 -5 54 -29 78 -18 17 -40 29 -56 29 l-26 0 30 37 c36 44 39 65 11 93 -31 31
-58 25 -106 -27 l-44 -48 0 48 c0 34 -6 53 -20 67 -26 26 -46 25 -75 -5z m205
-355 l0 -70 -164 0 c-186 0 -176 -6 -176 93 l0 47 170 0 170 0 0 -70z m-450
-15 l0 -55 -99 0 -99 0 -5 33 c-3 17 -8 42 -12 55 -7 22 -7 22 104 22 l111 0
0 -55z m906 -191 c-3 -9 -6 -33 -6 -55 l0 -39 -292 0 c-257 0 -294 -2 -310
-17 -18 -16 -23 -49 -10 -69 14 -22 52 -34 106 -34 l56 0 0 -315 0 -315 -150
0 -150 0 0 277 c0 243 -2 279 -17 295 -16 18 -49 23 -69 10 -30 -20 -34 -55
-34 -316 l0 -266 -50 0 -50 0 0 315 0 315 78 0 c97 0 126 14 130 60 6 57 -6
60 -235 60 l-203 0 0 36 c0 19 -5 44 -10 55 -11 19 -1 19 606 19 558 0 616 -1
610 -16z m-236 -529 l0 -315 -50 0 -50 0 0 315 0 315 50 0 50 0 0 -315z"/>
</g>
</svg>
